<svg width="32" height="24" viewBox="0 0 32 24" fill="none" xmlns="http://www.w3.org/2000/svg">
<g clip-path="url(#clip0_cn)">
<rect width="32" height="24" fill="#EE1C25"/>
<path d="M7.5 3L8.44 5.89H11.47L8.99 7.71L9.94 10.59L7.5 8.78L5.06 10.59L6.01 7.71L3.53 5.89H6.56L7.5 3Z" fill="#FFDE00"/>
<path d="M14.5 2.5L13.72 3.28L14.47 3.36L14.12 4.06L14.78 3.78L14.82 4.52L15.2 3.88L15.64 4.48L15.6 3.74L16.28 3.96L15.86 3.3L16.6 3.16L15.86 2.84L16.22 2.2L15.54 2.48L15.5 1.74L15.12 2.38L14.68 1.78L14.72 2.52L14.5 2.5Z" fill="#FFDE00"/>
<path d="M17.5 5L16.72 5.78L17.47 5.86L17.12 6.56L17.78 6.28L17.82 7.02L18.2 6.38L18.64 6.98L18.6 6.24L19.28 6.46L18.86 5.8L19.6 5.66L18.86 5.34L19.22 4.7L18.54 4.98L18.5 4.24L18.12 4.88L17.68 4.28L17.72 5.02L17.5 5Z" fill="#FFDE00"/>
<path d="M17.5 9.5L16.72 10.28L17.47 10.36L17.12 11.06L17.78 10.78L17.82 11.52L18.2 10.88L18.64 11.48L18.6 10.74L19.28 10.96L18.86 10.3L19.6 10.16L18.86 9.84L19.22 9.2L18.54 9.48L18.5 8.74L18.12 9.38L17.68 8.78L17.72 9.52L17.5 9.5Z" fill="#FFDE00"/>
<path d="M14.5 12L13.72 12.78L14.47 12.86L14.12 13.56L14.78 13.28L14.82 14.02L15.2 13.38L15.64 13.98L15.6 13.24L16.28 13.46L15.86 12.8L16.6 12.66L15.86 12.34L16.22 11.7L15.54 11.98L15.5 11.24L15.12 11.88L14.68 11.28L14.72 12.02L14.5 12Z" fill="#FFDE00"/>
</g>
<defs>
<clipPath id="clip0_cn">
<rect width="32" height="24" fill="white"/>
</clipPath>
</defs>
</svg>
