<svg fill="none" height="32" viewBox="0 0 32 32" width="32" xmlns="http://www.w3.org/2000/svg"><path d="M16 20C18.2091 20 20 18.2091 20 16C20 13.7909 18.2091 12 16 12C13.7909 12 12 13.7909 12 16C12 18.2091 13.7909 20 16 20Z" stroke="#6B7280" stroke-width="2" stroke-linecap="round" stroke-linejoin="round"/><path d="M25.8 19.6C25.6 20.1 25.7 20.7 26.1 21.1L26.2 21.2C26.5 21.5 26.7 21.9 26.7 22.4C26.7 22.9 26.5 23.3 26.2 23.6C25.9 23.9 25.5 24.1 25 24.1C24.5 24.1 24.1 23.9 23.8 23.6L23.7 23.5C23.3 23.1 22.7 23 22.2 23.2C21.7 23.4 21.4 23.9 21.4 24.4V24.6C21.4 25.7 20.5 26.6 19.4 26.6C18.3 26.6 17.4 25.7 17.4 24.6V24.5C17.4 23.9 17 23.4 16.5 23.2C16 23 15.4 23.1 15 23.5L14.9 23.6C14.6 23.9 14.2 24.1 13.7 24.1C13.2 24.1 12.8 23.9 12.5 23.6C12.2 23.3 12 22.9 12 22.4C12 21.9 12.2 21.5 12.5 21.2L12.6 21.1C13 20.7 13.1 20.1 12.9 19.6C12.7 19.1 12.2 18.8 11.7 18.8H11.4C10.3 18.8 9.4 17.9 9.4 16.8C9.4 15.7 10.3 14.8 11.4 14.8H11.5C12.1 14.8 12.6 14.4 12.8 13.9C13 13.4 12.9 12.8 12.5 12.4L12.4 12.3C12.1 12 11.9 11.6 11.9 11.1C11.9 10.6 12.1 10.2 12.4 9.9C12.7 9.6 13.1 9.4 13.6 9.4C14.1 9.4 14.5 9.6 14.8 9.9L14.9 10C15.3 10.4 15.9 10.5 16.4 10.3H16.5C17 10.1 17.3 9.6 17.3 9.1V8.8C17.3 7.7 18.2 6.8 19.3 6.8C20.4 6.8 21.3 7.7 21.3 8.8V8.9C21.3 9.5 21.7 10 22.2 10.2C22.7 10.4 23.3 10.3 23.7 9.9L23.8 9.8C24.1 9.5 24.5 9.3 25 9.3C25.5 9.3 25.9 9.5 26.2 9.8C26.5 10.1 26.7 10.5 26.7 11C26.7 11.5 26.5 11.9 26.2 12.2L26.1 12.3C25.7 12.7 25.6 13.3 25.8 13.8V13.9C26 14.4 26.5 14.7 27 14.7H27.2C28.3 14.7 29.2 15.6 29.2 16.7C29.2 17.8 28.3 18.7 27.2 18.7H27.1C26.5 18.7 26 19.1 25.8 19.6Z" stroke="#6B7280" stroke-width="2" stroke-linecap="round" stroke-linejoin="round"/></svg>